<svg width="96" height="39" viewBox="0 0 96 39" fill="none" xmlns="http://www.w3.org/2000/svg">
<path d="M10.4395 14.4286V4.00865H5.5957V14.4286H1.37695V0.424665H14.6582V14.4286H10.4395ZM24.3555 14.4286V9.00865C24.1016 9.49693 23.8346 9.94941 23.5547 10.3661L20.7129 14.4286H17.0312V4.42857H20.8594V9.54576C21.0352 9.16816 21.2793 8.75474 21.5918 8.30552L24.2383 4.42857H28.1543V14.4286H24.3555ZM38.3984 14.1454C38.1315 14.3016 37.7116 14.4286 37.1387 14.5262C36.5658 14.6239 35.9049 14.6727 35.1562 14.6727C34.1016 14.6727 33.1576 14.4611 32.3242 14.0379C31.4974 13.6083 30.8561 13.0093 30.4004 12.2411C29.9447 11.4728 29.7168 10.6102 29.7168 9.65318C29.7168 8.50735 29.9577 7.52753 30.4395 6.71373C30.9277 5.89342 31.6211 5.26842 32.5195 4.83873C33.418 4.40253 34.4596 4.18443 35.6445 4.18443C36.2956 4.18443 36.8783 4.22675 37.3926 4.31138C37.9134 4.39602 38.2487 4.49368 38.3984 4.60435V7.84654C38.1901 7.68378 37.8906 7.54055 37.5 7.41685C37.1094 7.29316 36.748 7.23131 36.416 7.23131C35.6022 7.23131 34.9837 7.42662 34.5605 7.81724C34.1439 8.20136 33.9355 8.74498 33.9355 9.4481C33.9355 10.1382 34.1406 10.6753 34.5508 11.0594C34.9674 11.437 35.5371 11.6258 36.2598 11.6258C37.0345 11.6258 37.7474 11.4403 38.3984 11.0692V14.1454ZM45.9473 7.50474V14.4286H41.7871V7.50474H39.3652V4.42857H48.3594V7.50474H45.9473ZM60.791 9.25279C60.791 10.939 60.2799 12.2639 59.2578 13.2274C58.2422 14.1909 56.8197 14.6727 54.9902 14.6727C53.1738 14.6727 51.7578 14.204 50.7422 13.2665C49.7331 12.3225 49.2285 11.0236 49.2285 9.36998C49.2285 8.30878 49.4661 7.38756 49.9414 6.60631C50.4167 5.82506 51.0938 5.2261 51.9727 4.80943C52.8516 4.39276 53.8639 4.18443 55.0098 4.18443C56.1947 4.18443 57.2201 4.40253 58.0859 4.83873C58.9583 5.27493 59.6257 5.88039 60.0879 6.65513C60.5566 7.42987 60.791 8.29576 60.791 9.25279ZM56.5723 9.27232C56.5723 7.91164 56.0514 7.23131 55.0098 7.23131C53.9681 7.23131 53.4473 7.9442 53.4473 9.36998C53.4473 10.8739 53.9746 11.6258 55.0293 11.6258C56.0579 11.6258 56.5723 10.8413 56.5723 9.27232ZM69.4043 14.4286V7.23131H67.8125C67.6172 8.7287 67.3958 9.94615 67.1484 10.8836C66.901 11.8211 66.6113 12.5503 66.2793 13.0711C65.9473 13.592 65.5339 13.9696 65.0391 14.204C64.5443 14.4318 63.8477 14.5458 62.9492 14.5458C62.3503 14.5458 61.8815 14.4872 61.543 14.37V11.7919C61.7253 11.857 61.9336 11.8895 62.168 11.8895C62.6237 11.8895 62.9883 11.6486 63.2617 11.1669C63.5352 10.6786 63.7858 9.89407 64.0137 8.81334C64.2415 7.7261 64.4694 6.26451 64.6973 4.42857H73.5645V14.4286H69.4043ZM79.1504 10.6102C79.222 11.0399 79.4694 11.3784 79.8926 11.6258C80.3158 11.8667 80.8757 11.9872 81.5723 11.9872C82.5423 11.9872 83.4603 11.8016 84.3262 11.4305V14.0672C83.3171 14.4709 82.0931 14.6727 80.6543 14.6727C78.9095 14.6727 77.5521 14.2267 76.582 13.3348C75.612 12.4429 75.127 11.2157 75.127 9.65318C75.127 8.57896 75.3385 7.6317 75.7617 6.81138C76.1914 5.99107 76.8229 5.3498 77.6562 4.88756C78.4961 4.41881 79.4206 4.18443 80.4297 4.18443C81.4648 4.18443 82.3503 4.38625 83.0859 4.7899C83.8216 5.19355 84.3783 5.75995 84.7559 6.48912C85.14 7.21829 85.332 8.07115 85.332 9.04771V10.6102H79.1504ZM81.6504 8.43248C81.6504 7.28013 81.237 6.70396 80.4102 6.70396C80.0651 6.70396 79.7754 6.86347 79.541 7.18248C79.3066 7.49498 79.1699 7.91164 79.1309 8.43248H81.6504ZM92.666 7.50474V14.4286H88.5059V7.50474H86.084V4.42857H95.0781V7.50474H92.666ZM8.18359 33.4286V28.37H7.85156C6.75781 28.37 6.04167 29.0178 5.70312 30.3133L4.88281 33.4286H0.117188L1.30859 29.786C1.53646 29.0764 1.86849 28.5002 2.30469 28.0575C2.7474 27.6148 3.3431 27.273 4.0918 27.0321V26.993C2.09961 26.5047 1.10352 25.3166 1.10352 23.4286C1.10352 22.146 1.60156 21.1597 2.59766 20.4696C3.60026 19.773 5.08138 19.4247 7.04102 19.4247H12.4023V33.4286H8.18359ZM8.18359 22.4325H7.4707C6.85872 22.4325 6.38997 22.5562 6.06445 22.8036C5.74544 23.0445 5.58594 23.3993 5.58594 23.868C5.58594 24.3303 5.75846 24.7111 6.10352 25.0106C6.45508 25.3036 6.91732 25.4501 7.49023 25.4501H8.18359V22.4325ZM26.0645 28.1258C26.0645 29.2196 25.8789 30.1864 25.5078 31.0262C25.1367 31.8661 24.6126 32.5171 23.9355 32.9794C23.2585 33.4416 22.4967 33.6727 21.6504 33.6727C20.4785 33.6727 19.5898 33.2463 18.9844 32.3934H18.9453V38.0282H14.7852V23.4286H18.9453V24.786H18.9844C19.3164 24.2847 19.7461 23.8941 20.2734 23.6141C20.8008 23.3277 21.3997 23.1844 22.0703 23.1844C23.3594 23.1844 24.3457 23.6141 25.0293 24.4735C25.7194 25.3329 26.0645 26.5503 26.0645 28.1258ZM21.8457 28.2528C21.8457 27.6213 21.722 27.1265 21.4746 26.7684C21.2337 26.4103 20.8594 26.2313 20.3516 26.2313C19.9089 26.2313 19.5508 26.4201 19.2773 26.7977C19.0039 27.1753 18.8672 27.6929 18.8672 28.3504V28.5458C18.8672 29.1773 18.9844 29.6818 19.2188 30.0594C19.4531 30.437 19.8047 30.6258 20.2734 30.6258C20.7747 30.6258 21.1621 30.4208 21.4355 30.0106C21.709 29.5939 21.8457 29.008 21.8457 28.2528ZM39.2383 33.4286V23.4286H43.3984V33.4286H39.2383ZM38.2227 29.8934C38.2227 31.0262 37.8906 31.8986 37.2266 32.5106C36.569 33.1226 35.6348 33.4286 34.4238 33.4286H27.6367V23.4286H31.7969V26.6512H34.4824C35.6738 26.6512 36.5951 26.9377 37.2461 27.5106C37.8971 28.077 38.2227 28.8713 38.2227 29.8934ZM33.916 29.9911C33.916 29.3335 33.5189 29.0047 32.7246 29.0047H31.7969V31.0458H32.6172C33.0729 31.0458 33.4017 30.9644 33.6035 30.8016C33.8118 30.6323 33.916 30.3622 33.916 29.9911ZM49.5703 26.5047V33.4286H45.4102V23.4286H52.5586V26.5047H49.5703ZM61.0742 33.4286V28.0086C60.8203 28.4969 60.5534 28.9494 60.2734 29.3661L57.4316 33.4286H53.75V23.4286H57.5781V28.5458C57.7539 28.1682 57.998 27.7547 58.3105 27.3055L60.957 23.4286H64.873V33.4286H61.0742ZM73.3594 33.4286V29.5321H71.0352V33.4286H66.875V23.4286H71.0352V26.827H73.3594V23.4286H77.5195V33.4286H73.3594ZM85.0586 33.4286V31.9051H85.0195C84.3555 33.0835 83.3398 33.6727 81.9727 33.6727C81.0286 33.6727 80.2897 33.3928 79.7559 32.8329C79.222 32.273 78.9551 31.5243 78.9551 30.5868C78.9551 28.6206 80.1628 27.4813 82.5781 27.1688L85.0586 26.8465C85.0586 26.521 84.9121 26.2541 84.6191 26.0458C84.3262 25.8374 83.9323 25.7333 83.4375 25.7333C82.3177 25.7333 81.1361 26.0523 79.8926 26.6903V23.9852C80.4329 23.7508 81.11 23.5588 81.9238 23.409C82.7376 23.2593 83.4342 23.1844 84.0137 23.1844C85.7129 23.1844 86.9434 23.549 87.7051 24.2782C88.4733 25.0008 88.8574 26.2118 88.8574 27.911V33.4286H85.0586ZM82.5977 30.0301C82.5977 30.3036 82.6823 30.5282 82.8516 30.704C83.0273 30.8797 83.2747 30.9676 83.5938 30.9676C84.0299 30.9676 84.3815 30.8049 84.6484 30.4794C84.9219 30.1538 85.0586 29.7372 85.0586 29.2294V28.8485L83.6523 29.0438C82.9492 29.161 82.5977 29.4898 82.5977 30.0301Z" fill="#333333"/>
</svg>
