<svg width="64" height="34" viewBox="0 0 64 34" fill="none" xmlns="http://www.w3.org/2000/svg">
<path d="M21.5327 33.4286V8.94176H10.1499V33.4286H0.23584V0.519392H31.4468V33.4286H21.5327ZM53.9141 33.4286V21.5409H53.1338C50.5635 21.5409 48.8805 23.0632 48.085 26.1078L46.1572 33.4286H34.958L37.7578 24.8685C38.2933 23.2009 39.0736 21.8469 40.0986 20.8065C41.139 19.7661 42.5389 18.9629 44.2983 18.3968V18.305C39.6167 17.1576 37.2759 14.3654 37.2759 9.92857C37.2759 6.91457 38.4463 4.5967 40.7871 2.97496C43.1432 1.33791 46.6239 0.519392 51.229 0.519392H63.8281V33.4286H53.9141ZM53.9141 7.58775H52.2388C50.8006 7.58775 49.6991 7.87844 48.9341 8.45982C48.1844 9.0259 47.8096 9.85972 47.8096 10.9613C47.8096 12.0475 48.215 12.9426 49.0259 13.6463C49.8521 14.3348 50.9383 14.6791 52.2847 14.6791H53.9141V7.58775Z" fill="#EF2045"/>
</svg>
